<?xml version="1.0" encoding="UTF-8"?>
<svg width="48px" height="42px" viewBox="0 0 48 42" version="1.1" xmlns="http://www.w3.org/2000/svg" xmlns:xlink="http://www.w3.org/1999/xlink">
    <!-- Generator: Sketch 52.4 (67378) - http://www.bohemiancoding.com/sketch -->
    <title>ic-emptyroutine</title>
    <desc>Created with Sketch.</desc>
    <g id="IOS" stroke="none" stroke-width="1" fill="none" fill-rule="evenodd">
        <g id="11---Inicial" transform="translate(-137.000000, -262.000000)">
            <g id="Group-3" transform="translate(20.000000, 255.000000)">
                <g id="ic-emptyroutine" transform="translate(116.000000, 0.000000)">
                    <polygon id="Rectangle-path" points="0.9726 0.0004 48.9726 0.0004 48.9726 48.0004 0.9726 48.0004"></polygon>
                    <g id="Group" transform="translate(2.000000, 8.000000)" stroke="#CE0026" stroke-width="2">
                        <path d="M6.9396,12.9102 L1.5534,12.9102 C0.9024,12.9102 0.3746,13.4376 0.3746,14.0894 L0.3746,15.5386 C0.3746,16.8012 1.8518,16.7688 3.1558,16.9916 C2.6498,17.9808 1.7682,26.5198 1.7682,26.5198 L1.7682,36.9592 C1.7682,38.1206 2.71,39.0622 3.872,39.0622 L7.083,39.0622 C8.245,39.0622 9.1868,38.1208 9.1868,36.9592 L9.1868,33.0402 L36.7928,33.0402 L36.7928,36.9592 C36.7928,38.1206 37.7346,39.0622 38.8966,39.0622 L42.1076,39.0622 C43.2694,39.0622 44.2114,38.1208 44.2114,36.9592 L44.2114,26.5198 C44.2114,26.5198 43.3284,17.9764 42.8204,16.9856 C44.1054,16.766 45.5668,16.8042 45.5668,15.5384 L45.5668,14.0892 C45.5668,13.4374 45.039,12.91 44.388,12.91 L39.04,12.91" id="Shape"></path>
                        <path d="M39.0396,12.7752 C39.0396,15.1038 36.3792,16.9916 33.867,16.9916 L12.1122,16.9916 C9.6,16.9916 6.9396,15.104 6.9396,12.7752 L9.0146,5.117 C9.4454,2.9662 11.0514,0.9 13.564,0.9 L32.4156,0.9 C34.9278,0.9 36.5338,2.9068 36.9644,5.117 L39.0396,12.7752 L39.0396,12.7752 Z" id="Shape"></path>
                        <path d="M18.0086,25.0024 L27.9706,25.0024" id="Shape"></path>
                        <path d="M18.0086,29.0028 L27.9706,29.0028" id="Shape"></path>
                        <circle id="Oval" cx="10.986" cy="26.064" r="3.1078"></circle>
                        <circle id="Oval" cx="34.9932" cy="26.064" r="3.108"></circle>
                        <path d="M20.4,4.9004 L25.591,4.9004" id="Shape"></path>
                        <path d="M44.211,33.0402 L1.7682,33.0402" id="Shape"></path>
                    </g>
                </g>
            </g>
        </g>
    </g>
</svg>