<?xml version="1.0" encoding="UTF-8"?>
<svg width="18px" height="3px" viewBox="0 0 18 3" version="1.1" xmlns="http://www.w3.org/2000/svg" xmlns:xlink="http://www.w3.org/1999/xlink">
    <!-- Generator: Sketch 52.4 (67378) - http://www.bohemiancoding.com/sketch -->
    <title>ic-more</title>
    <desc>Created with Sketch.</desc>
    <g id="IOS" stroke="none" stroke-width="1" fill="none" fill-rule="evenodd">
        <g id="11---Inicial" transform="translate(-282.000000, -108.000000)" fill="#6C727C">
            <path d="M283.468668,111 C283.061356,111 282.714753,110.855733 282.428851,110.567194 C282.142949,110.278655 282,109.920951 282,109.494071 C282,109.067192 282.142949,108.711464 282.428851,108.426877 C282.714753,108.142291 283.061356,108 283.468668,108 C283.875981,108 284.222583,108.142291 284.508486,108.426877 C284.794388,108.711464 284.937337,109.067192 284.937337,109.494071 C284.937337,109.920951 284.794388,110.278655 284.508486,110.567194 C284.222583,110.855733 283.875981,111 283.468668,111 Z M291,111 C290.592687,111 290.246085,110.855733 289.960183,110.567194 C289.674281,110.278655 289.531332,109.920951 289.531332,109.494071 C289.531332,109.067192 289.674281,108.711464 289.960183,108.426877 C290.246085,108.142291 290.592687,108 291,108 C291.407313,108 291.753915,108.142291 292.039817,108.426877 C292.325719,108.711464 292.468668,109.067192 292.468668,109.494071 C292.468668,109.920951 292.325719,110.278655 292.039817,110.567194 C291.753915,110.855733 291.407313,111 291,111 Z M298.531332,111 C298.124019,111 297.777417,110.855733 297.491514,110.567194 C297.205612,110.278655 297.062663,109.920951 297.062663,109.494071 C297.062663,109.067192 297.205612,108.711464 297.491514,108.426877 C297.777417,108.142291 298.124019,108 298.531332,108 C298.938644,108 299.285247,108.142291 299.571149,108.426877 C299.857051,108.711464 300,109.067192 300,109.494071 C300,109.920951 299.857051,110.278655 299.571149,110.567194 C299.285247,110.855733 298.938644,111 298.531332,111 Z" id="ic-more" transform="translate(291.000000, 109.500000) rotate(-360.000000) translate(-291.000000, -109.500000) "></path>
        </g>
    </g>
</svg>