<?xml version="1.0" encoding="UTF-8"?>
<svg width="18px" height="20px" viewBox="0 0 18 20" version="1.1" xmlns="http://www.w3.org/2000/svg" xmlns:xlink="http://www.w3.org/1999/xlink">
    <!-- Generator: Sketch 52.4 (67378) - http://www.bohemiancoding.com/sketch -->
    <title>ic-notifications</title>
    <desc>Created with Sketch.</desc>
    <g id="IOS" stroke="none" stroke-width="1" fill="none" fill-rule="evenodd">
        <g id="11---Inicial" transform="translate(-111.000000, -524.000000)">
            <g id="nav" transform="translate(0.000000, 516.000000)">
                <g id="ic-notifications" transform="translate(110.000000, 8.000000)">
                    <polygon id="Rectangle-path" points="0.78912 0.00016 19.98912 0.00016 19.98912 19.20016 0.78912 19.20016"></polygon>
                    <g id="Group" transform="translate(2.400000, 0.000000)" stroke="#6C727C">
                        <g id="Shape">
                            <path d="M16.0844,13.3176 C15.1624,12.33568 13.16336,9.71704 13.3268,5.59672 C13.42352,3.16024 12.10424,1.86864 10.76088,1.18608 C9.06512,0.32456 7.03464,0.32456 5.33888,1.18608 C3.99544,1.86856 2.67616,3.16016 2.77288,5.59664 C2.9364,9.71704 0.93736,12.33568 0.01536,13.31752"></path>
                            <path d="M16.0844,13.3176 C11.70288,16.88704 4.3912,16.88248 0.01536,13.3176"></path>
                        </g>
                        <path d="M6.24088,17.22976 C6.24088,18.01768 7.0524,18.65872 8.0496,18.65872 C9.0472,18.65872 9.8588,18.01768 9.8588,17.22976" id="Shape"></path>
                    </g>
                </g>
            </g>
        </g>
    </g>
</svg>