<?xml version="1.0" encoding="UTF-8"?>
<svg width="20px" height="20px" viewBox="0 0 20 20" version="1.1" xmlns="http://www.w3.org/2000/svg" xmlns:xlink="http://www.w3.org/1999/xlink">
    <!-- Generator: Sketch 52.4 (67378) - http://www.bohemiancoding.com/sketch -->
    <title>ic-profile</title>
    <desc>Created with Sketch.</desc>
    <g id="IOS" stroke="none" stroke-width="1" fill="none" fill-rule="evenodd">
        <g id="11---Inicial" transform="translate(-270.000000, -524.000000)">
            <g id="nav" transform="translate(0.000000, 516.000000)">
                <g id="ic-profile" transform="translate(270.000000, 8.000000)">
                    <rect id="Rectangle-path" x="0" y="0" width="20" height="20"></rect>
                    <g id="Group" stroke="#6C727C">
                        <path d="M9.99908333,0.573 C4.79166667,0.573 0.55625,4.8085 0.55625,10.0158333 C0.55625,15.2225 4.79175,19.45875 9.99908333,19.45875 C15.20575,19.45875 19.442,15.2225 19.442,10.0158333 C19.4419167,4.8085 15.2056667,0.573 9.99908333,0.573 L9.99908333,0.573 Z" id="Shape"></path>
                        <path d="M16.2820833,17.0591667 C14.235,16.2060833 12.245,15.2240833 12.0529167,14.60825 L12.0529167,13.7806667 C12.60025,13.22075 13.0319167,12.4398333 13.2874167,11.5255833 C13.8966667,11.0978333 14.05675,10.2096667 13.54575,9.581 L13.54575,7.72833333 C13.54575,5.81575 12.48075,4.5065 10.0458333,4.5065 C7.67383333,4.5065 6.54466667,5.81575 6.54466667,7.72833333 L6.54466667,9.58166667 C6.0355,10.2084167 6.19375,11.0963333 6.803,11.52525 C7.0585,12.4398333 7.4905,13.22075 8.03816667,13.7806667 L8.03816667,14.60825 C7.84458333,15.22975 5.981,16.1489167 3.90758333,17.0101667" id="Shape"></path>
                    </g>
                </g>
            </g>
        </g>
    </g>
</svg>