<?xml version="1.0" encoding="UTF-8"?>
<svg width="16px" height="22px" viewBox="0 0 16 22" version="1.1" xmlns="http://www.w3.org/2000/svg" xmlns:xlink="http://www.w3.org/1999/xlink">
    <!-- Generator: Sketch 52.4 (67378) - http://www.bohemiancoding.com/sketch -->
    <title>ic-routine</title>
    <desc>Created with Sketch.</desc>
    <g id="IOS" stroke="none" stroke-width="1" fill="none" fill-rule="evenodd">
        <g id="11---Inicial" transform="translate(-192.000000, -523.000000)">
            <g id="nav" transform="translate(0.000000, 516.000000)">
                <g id="ic-routine" transform="translate(190.000000, 8.000000)">
                    <rect id="Rectangle-path" x="0" y="0" width="20" height="20"></rect>
                    <g id="Group" transform="translate(2.500000, 0.000000)" stroke="#FFFFFF">
                        <path d="M14.5858333,2.3875 C14.5858333,1.299 13.7033333,0.416666667 12.6148333,0.416666667 L2.39025,0.416666667 C1.30166667,0.416666667 0.419166667,1.29908333 0.419166667,2.3875 L0.419166667,17.6125 C0.419166667,18.701 1.30166667,19.5833333 2.39016667,19.5833333 L12.61475,19.5833333 C13.7033333,19.5833333 14.58575,18.7009167 14.58575,17.6125 L14.58575,2.3875 L14.5858333,2.3875 Z" id="Shape"></path>
                        <path d="M11.234,5.41666667 L6.2705,5.41666667" id="Shape"></path>
                        <path d="M9.56233333,7.08316667 L6.27033333,7.08316667" id="Shape"></path>
                        <path d="M3.75083333,0.416666667 L3.75083333,19.5833333" id="Shape"></path>
                    </g>
                </g>
            </g>
        </g>
    </g>
</svg>